<svg width="29" height="29" viewBox="0 0 29 29" fill="none" xmlns="http://www.w3.org/2000/svg">
<path d="M0.164165 8.88574V9.21408C0.164165 14.2774 0.163332 19.3407 0.165832 24.4041C0.165832 24.6532 0.167499 24.9057 0.209165 25.1499C0.579165 27.3524 2.3175 28.8257 4.565 28.8299C8.56666 28.8366 12.5692 28.8316 16.5717 28.8316H16.9083C16.85 28.5974 16.7925 28.4191 16.7642 28.2366C16.5342 26.7691 16.3267 25.2982 16.0783 23.8341C15.9567 23.1207 16.0333 22.4682 16.345 21.8082C17.7908 18.7491 19.2125 15.6774 20.6442 12.6116C21.5983 10.5682 23.68 9.80658 25.7242 10.7574C26.7367 11.2274 27.7425 11.7116 28.7408 12.1849V8.88574H0.164165ZM11.7367 24.8366C10.6458 24.8424 9.55583 24.8382 8.465 24.8382C7.36417 24.8374 6.26333 24.8382 5.1625 24.8374C4.76166 24.8374 4.45917 24.6566 4.2725 24.3099C4.09166 23.9741 4.11 23.6266 4.315 23.3032C4.515 22.9882 4.82 22.8441 5.18583 22.8441C7.37667 22.8407 9.56833 22.8374 11.76 22.8449C12.3733 22.8474 12.8 23.2832 12.795 23.8557C12.79 24.4299 12.3625 24.8332 11.7367 24.8366ZM14.6758 19.4932C14.5558 19.5199 14.4283 19.5182 14.305 19.5182C12.7983 19.5199 11.2925 19.5191 9.78666 19.5191C8.26 19.5191 6.73333 19.5224 5.20667 19.5174C4.48917 19.5149 4.005 18.8999 4.19 18.2432C4.3125 17.8082 4.7025 17.5249 5.2025 17.5232C6.43833 17.5199 7.675 17.5224 8.91083 17.5224C10.7492 17.5224 12.5875 17.5199 14.4258 17.5241C14.9758 17.5249 15.4017 17.8991 15.4592 18.4099C15.515 18.9107 15.1783 19.3832 14.6758 19.4932ZM15.4383 13.4066C15.3417 13.8141 15.0825 14.0807 14.6633 14.1657C14.5325 14.1924 14.3958 14.1982 14.2617 14.1982C12.7758 14.2007 11.2908 14.1999 9.80583 14.1999C8.29 14.1999 6.77333 14.2024 5.2575 14.1982C4.5825 14.1957 4.14083 13.7682 4.16 13.1549C4.17583 12.6507 4.55583 12.2507 5.05917 12.2099C5.14166 12.2032 5.225 12.2032 5.30833 12.2032C8.30916 12.2032 11.3108 12.1974 14.3125 12.2132C14.5742 12.2141 14.8717 12.3007 15.09 12.4432C15.4167 12.6566 15.53 13.0182 15.4383 13.4066Z" fill="#FF782D"/>
<path d="M28.7608 4.56563C28.7425 4.14313 28.6991 3.71063 28.5816 3.3073C28.0325 1.41396 26.3725 0.223964 24.3141 0.22313C17.7541 0.221464 11.1941 0.222297 4.63332 0.22313C4.50915 0.22313 4.38415 0.223964 4.25915 0.228964C2.29415 0.304797 0.533317 1.7973 0.255817 3.74646C0.119983 4.69563 0.187483 5.6748 0.165817 6.6398C0.16415 6.70813 0.182483 6.7773 0.192483 6.85563H28.7541C28.7591 6.75813 28.7675 6.6598 28.7683 6.56146C28.7691 5.89563 28.7891 5.2298 28.7608 4.56563ZM5.80832 4.86896C5.26415 4.86646 4.81582 4.4198 4.81415 3.87896C4.81332 3.32896 5.28998 2.86146 5.83582 2.8773C6.38082 2.8923 6.81165 3.34146 6.80582 3.89063C6.79998 4.4423 6.36332 4.87146 5.80832 4.86896ZM9.15248 4.86896C8.59832 4.87313 8.15915 4.4448 8.15248 3.89396C8.14498 3.33146 8.59415 2.8723 9.14832 2.87646C9.68248 2.88063 10.1416 3.34146 10.1433 3.87563C10.145 4.41646 9.69832 4.8648 9.15248 4.86896ZM12.48 4.86813C11.9316 4.8723 11.4808 4.4373 11.4725 3.8948C11.4641 3.33896 11.9216 2.87396 12.4741 2.8773C13.0125 2.88063 13.4658 3.33563 13.4675 3.87396C13.4691 4.41813 13.0258 4.86396 12.48 4.86813Z" fill="#FF782D"/>
<path d="M27.0075 19.4306C26.8208 19.8306 26.6433 20.2139 26.465 20.5964C25.6892 22.2614 24.91 23.9256 24.14 25.5931C24 25.8981 23.8 26.1256 23.5117 26.2989C22.2392 27.0639 20.9733 27.8406 19.7033 28.6098C18.9075 29.0923 18.1783 28.7514 18.0358 27.8306C17.8042 26.3323 17.5708 24.8339 17.3567 23.3331C17.3258 23.1181 17.3458 22.8623 17.435 22.6673C18.3908 20.5823 19.3658 18.5064 20.3358 16.4281C20.3442 16.4106 20.3617 16.3964 20.4017 16.3506C22.6017 17.3764 24.7908 18.3973 27.0075 19.4306Z" fill="#FF782D"/>
<path d="M28.6608 15.8088C28.4492 16.4222 28.14 17.0022 27.8625 17.6255C25.6367 16.588 23.4433 15.5647 21.215 14.5255C21.4892 13.948 21.7217 13.4038 22 12.883C22.55 11.8555 23.7792 11.393 24.8558 11.8405C25.7842 12.2263 26.6975 12.6522 27.59 13.113C28.5475 13.608 29.0142 14.7847 28.6608 15.8088Z" fill="#FF782D"/>
<path d="M28.7667 24.4633C28.7542 26.6867 27.2817 28.4433 25.0842 28.7742C24.3308 28.8875 23.55 28.8192 22.7808 28.8308C22.5325 28.835 22.2842 28.8317 22.035 28.8317C22.0283 28.8092 22.0208 28.7867 22.0142 28.7642C22.7208 28.3342 23.4192 27.89 24.1358 27.4775C24.7092 27.1483 25.1042 26.69 25.38 26.0908C26.4333 23.7992 27.5058 21.5158 28.5717 19.23C28.6133 19.1392 28.6617 19.0508 28.7433 18.8892C28.7558 19.0408 28.7675 19.1167 28.7675 19.1917C28.7692 20.9492 28.7767 22.7058 28.7667 24.4633Z" fill="#FF782D"/>
</svg>
